<mxfile host="Electron" agent="Mozilla/5.0 (Macintosh; Intel Mac OS X 10_15_7) AppleWebKit/537.36 (KHTML, like Gecko) draw.io/28.0.6 Chrome/138.0.7204.100 Electron/37.2.3 Safari/537.36" version="28.0.6">
  <diagram name="Page-1" id="-bIn6Tsyb2Wku2a4DE8p">
    <mxGraphModel dx="1420" dy="748" grid="1" gridSize="10" guides="1" tooltips="1" connect="1" arrows="1" fold="1" page="1" pageScale="1" pageWidth="850" pageHeight="1100" math="0" shadow="0">
      <root>
        <mxCell id="0" />
        <mxCell id="1" parent="0" />
        <mxCell id="_I1uHNVy5gvr9fxRLl3Z-34" value="" style="rounded=0;whiteSpace=wrap;html=1;" parent="1" vertex="1">
          <mxGeometry x="40" y="40" width="1160" height="420" as="geometry" />
        </mxCell>
        <mxCell id="_I1uHNVy5gvr9fxRLl3Z-1" value="" style="rounded=0;whiteSpace=wrap;html=1;fillColor=#FFFFFF;strokeColor=#000000;strokeWidth=2;" parent="1" vertex="1">
          <mxGeometry x="240" y="110" width="510" height="250" as="geometry" />
        </mxCell>
        <mxCell id="_I1uHNVy5gvr9fxRLl3Z-2" value="" style="rounded=0;whiteSpace=wrap;html=1;dashed=1;fillColor=#FFFFFF;strokeColor=#000000;" parent="1" vertex="1">
          <mxGeometry x="284" y="227" width="400" height="110" as="geometry" />
        </mxCell>
        <mxCell id="_I1uHNVy5gvr9fxRLl3Z-3" value="Cached Extension" style="rounded=0;whiteSpace=wrap;html=1;fillColor=#FFFFFF;strokeColor=#000000;" parent="1" vertex="1">
          <mxGeometry x="580" y="138" width="120" height="50" as="geometry" />
        </mxCell>
        <mxCell id="_I1uHNVy5gvr9fxRLl3Z-4" value="" style="rounded=0;whiteSpace=wrap;html=1;" parent="1" vertex="1">
          <mxGeometry x="314" y="259.5" width="70" height="45" as="geometry" />
        </mxCell>
        <mxCell id="_I1uHNVy5gvr9fxRLl3Z-5" value="" style="rounded=0;whiteSpace=wrap;html=1;" parent="1" vertex="1">
          <mxGeometry x="439" y="259.5" width="70" height="45" as="geometry" />
        </mxCell>
        <mxCell id="_I1uHNVy5gvr9fxRLl3Z-6" value="" style="rounded=0;whiteSpace=wrap;html=1;" parent="1" vertex="1">
          <mxGeometry x="564" y="259.5" width="70" height="45" as="geometry" />
        </mxCell>
        <mxCell id="_I1uHNVy5gvr9fxRLl3Z-7" value="" style="endArrow=classic;html=1;rounded=0;" parent="1" edge="1">
          <mxGeometry width="50" height="50" relative="1" as="geometry">
            <mxPoint x="130" y="170" as="sourcePoint" />
            <mxPoint x="240" y="170" as="targetPoint" />
          </mxGeometry>
        </mxCell>
        <mxCell id="_I1uHNVy5gvr9fxRLl3Z-8" value="" style="endArrow=classic;html=1;rounded=0;" parent="1" edge="1">
          <mxGeometry width="50" height="50" relative="1" as="geometry">
            <mxPoint x="130" y="230" as="sourcePoint" />
            <mxPoint x="240" y="230" as="targetPoint" />
          </mxGeometry>
        </mxCell>
        <mxCell id="_I1uHNVy5gvr9fxRLl3Z-9" value="" style="endArrow=classic;html=1;rounded=0;" parent="1" edge="1">
          <mxGeometry width="50" height="50" relative="1" as="geometry">
            <mxPoint x="130" y="290" as="sourcePoint" />
            <mxPoint x="240" y="290" as="targetPoint" />
          </mxGeometry>
        </mxCell>
        <mxCell id="_I1uHNVy5gvr9fxRLl3Z-10" value="" style="rounded=0;whiteSpace=wrap;html=1;fillColor=#FFFFFF;strokeWidth=2;" parent="1" vertex="1">
          <mxGeometry x="850" y="87" width="300" height="150" as="geometry" />
        </mxCell>
        <mxCell id="_I1uHNVy5gvr9fxRLl3Z-11" value="" style="strokeWidth=2;html=1;shape=mxgraph.flowchart.database;whiteSpace=wrap;fillColor=#FFFFFF;" parent="1" vertex="1">
          <mxGeometry x="800" y="370" width="80" height="60" as="geometry" />
        </mxCell>
        <mxCell id="_I1uHNVy5gvr9fxRLl3Z-14" value="&lt;b&gt;&lt;font style=&quot;font-size: 14px;&quot;&gt;Naksha Hub&lt;/font&gt;&lt;/b&gt;&lt;div&gt;&lt;b&gt;&lt;font style=&quot;font-size: 14px;&quot;&gt;(REST Service)&lt;/font&gt;&lt;/b&gt;&lt;/div&gt;" style="text;strokeColor=none;align=left;fillColor=none;html=1;verticalAlign=middle;whiteSpace=wrap;rounded=0;fontColor=#000000;" parent="1" vertex="1">
          <mxGeometry x="242" y="113" width="118" height="30" as="geometry" />
        </mxCell>
        <mxCell id="_I1uHNVy5gvr9fxRLl3Z-15" value="&lt;div&gt;Event Pipeline&lt;/div&gt;&lt;div&gt;(internal)&lt;/div&gt;" style="text;strokeColor=none;align=left;fillColor=none;html=1;verticalAlign=middle;whiteSpace=wrap;rounded=0;fontColor=#000000;" parent="1" vertex="1">
          <mxGeometry x="284" y="190" width="105" height="30" as="geometry" />
        </mxCell>
        <mxCell id="_I1uHNVy5gvr9fxRLl3Z-16" value="Inbuilt&lt;br&gt;Handler" style="text;strokeColor=none;align=center;fillColor=none;html=1;verticalAlign=middle;whiteSpace=wrap;rounded=0;fillColor=#FFFFFF;fontColor=#000000;strokeColor=#000000;" parent="1" vertex="1">
          <mxGeometry x="314" y="259.5" width="70" height="47.5" as="geometry" />
        </mxCell>
        <mxCell id="_I1uHNVy5gvr9fxRLl3Z-17" value="Inbuilt&lt;br&gt;Handler" style="text;strokeColor=none;align=center;fillColor=none;html=1;verticalAlign=middle;whiteSpace=wrap;rounded=0;fillColor=#FFFFFF;fontColor=#000000;strokeColor=#000000;" parent="1" vertex="1">
          <mxGeometry x="564" y="259.5" width="70" height="47.5" as="geometry" />
        </mxCell>
        <mxCell id="_I1uHNVy5gvr9fxRLl3Z-18" value="Custom&lt;br&gt;Handler" style="text;strokeColor=none;align=center;fillColor=none;html=1;verticalAlign=middle;whiteSpace=wrap;rounded=0;fillColor=#FFFFFF;fontColor=#000000;strokeColor=#000000;" parent="1" vertex="1">
          <mxGeometry x="439" y="257" width="70" height="47.5" as="geometry" />
        </mxCell>
        <mxCell id="_I1uHNVy5gvr9fxRLl3Z-22" value="Extension 1&lt;div&gt;&amp;lt;env_1&amp;gt;&lt;/div&gt;&lt;div&gt;&amp;lt;env_2&amp;gt;&lt;/div&gt;" style="shape=module;align=left;spacingLeft=20;align=center;verticalAlign=top;whiteSpace=wrap;html=1;fillColor=#FFFFFF;fontColor=#000000;strokeColor=#000000;" parent="1" vertex="1">
          <mxGeometry x="870" y="140" width="100" height="50" as="geometry" />
        </mxCell>
        <mxCell id="_I1uHNVy5gvr9fxRLl3Z-23" value="Extension 2&lt;div&gt;&amp;lt;env_1&amp;gt;&lt;/div&gt;" style="shape=module;align=left;spacingLeft=20;align=center;verticalAlign=top;whiteSpace=wrap;html=1;fillColor=#FFFFFF;fontColor=#000000;strokeColor=#000000;" parent="1" vertex="1">
          <mxGeometry x="1010" y="140" width="100" height="50" as="geometry" />
        </mxCell>
        <mxCell id="_I1uHNVy5gvr9fxRLl3Z-24" value="&lt;b&gt;&lt;font style=&quot;font-size: 14px;&quot;&gt;Extension Registry ( S3 / Local)&lt;/font&gt;&lt;/b&gt;" style="text;strokeColor=none;align=center;fillColor=none;html=1;verticalAlign=middle;whiteSpace=wrap;rounded=0;fontColor=#000000;" parent="1" vertex="1">
          <mxGeometry x="850" y="90" width="250" height="30" as="geometry" />
        </mxCell>
        <mxCell id="_I1uHNVy5gvr9fxRLl3Z-25" value="Managed Storage" style="text;strokeColor=none;align=center;fillColor=none;html=1;verticalAlign=middle;whiteSpace=wrap;rounded=0;fontColor=#000000;" parent="1" vertex="1">
          <mxGeometry x="810" y="390" width="60" height="30" as="geometry" />
        </mxCell>
        <mxCell id="_I1uHNVy5gvr9fxRLl3Z-26" value="" style="endArrow=open;endSize=12;dashed=1;html=1;rounded=0;exitX=0;exitY=0.5;exitDx=0;exitDy=0;entryX=1;entryY=0.5;entryDx=0;entryDy=0;" parent="1" source="_I1uHNVy5gvr9fxRLl3Z-10" target="_I1uHNVy5gvr9fxRLl3Z-3" edge="1">
          <mxGeometry width="160" relative="1" as="geometry">
            <mxPoint x="490" y="-30" as="sourcePoint" />
            <mxPoint x="650" y="-30" as="targetPoint" />
          </mxGeometry>
        </mxCell>
        <mxCell id="ItCAHH0_QNCR098YTIzZ-4" value="Loaded from&lt;div&gt;Registry&lt;/div&gt;" style="edgeLabel;html=1;align=center;verticalAlign=middle;resizable=0;points=[];" vertex="1" connectable="0" parent="_I1uHNVy5gvr9fxRLl3Z-26">
          <mxGeometry x="0.0224" y="2" relative="1" as="geometry">
            <mxPoint x="17" y="-22" as="offset" />
          </mxGeometry>
        </mxCell>
        <mxCell id="_I1uHNVy5gvr9fxRLl3Z-28" value="" style="endArrow=open;endSize=12;dashed=1;html=1;rounded=0;entryX=0.5;entryY=0;entryDx=0;entryDy=0;strokeColor=#000000;exitX=0;exitY=0.5;exitDx=0;exitDy=0;" parent="1" target="_I1uHNVy5gvr9fxRLl3Z-18" edge="1" source="_I1uHNVy5gvr9fxRLl3Z-3">
          <mxGeometry width="160" relative="1" as="geometry">
            <mxPoint x="580" y="160" as="sourcePoint" />
            <mxPoint x="520" y="240" as="targetPoint" />
            <Array as="points" />
          </mxGeometry>
        </mxCell>
        <mxCell id="ItCAHH0_QNCR098YTIzZ-3" value="Loaded from&lt;div&gt;Extension&lt;/div&gt;" style="edgeLabel;html=1;align=center;verticalAlign=middle;resizable=0;points=[];" vertex="1" connectable="0" parent="_I1uHNVy5gvr9fxRLl3Z-28">
          <mxGeometry x="-0.2092" y="-1" relative="1" as="geometry">
            <mxPoint x="-18" y="-19" as="offset" />
          </mxGeometry>
        </mxCell>
        <mxCell id="_I1uHNVy5gvr9fxRLl3Z-29" value="&lt;b&gt;&lt;font style=&quot;font-size: 14px;&quot;&gt;REST API&lt;br&gt;Endpoints&lt;/font&gt;&lt;/b&gt;" style="text;strokeColor=none;align=center;fillColor=none;html=1;verticalAlign=middle;whiteSpace=wrap;rounded=0;" parent="1" vertex="1">
          <mxGeometry x="60" y="195" width="60" height="55" as="geometry" />
        </mxCell>
        <mxCell id="_I1uHNVy5gvr9fxRLl3Z-30" value="Event Handlers .... 1 to &amp;lt;N&amp;gt;" style="text;strokeColor=none;align=center;fillColor=none;html=1;verticalAlign=middle;whiteSpace=wrap;rounded=0;fontColor=#000000;" parent="1" vertex="1">
          <mxGeometry x="391.5" y="307" width="175" height="30" as="geometry" />
        </mxCell>
        <mxCell id="ItCAHH0_QNCR098YTIzZ-2" value="" style="endArrow=open;html=1;rounded=0;entryX=0.5;entryY=0;entryDx=0;entryDy=0;entryPerimeter=0;exitX=1;exitY=0.5;exitDx=0;exitDy=0;edgeStyle=orthogonalEdgeStyle;endFill=0;endSize=12;" edge="1" parent="1" source="_I1uHNVy5gvr9fxRLl3Z-17" target="_I1uHNVy5gvr9fxRLl3Z-11">
          <mxGeometry width="50" height="50" relative="1" as="geometry">
            <mxPoint x="600" y="350" as="sourcePoint" />
            <mxPoint x="650" y="300" as="targetPoint" />
          </mxGeometry>
        </mxCell>
        <mxCell id="ItCAHH0_QNCR098YTIzZ-5" value="&lt;font style=&quot;font-size: 20px;&quot;&gt;. . .&lt;/font&gt;" style="text;html=1;align=center;verticalAlign=middle;whiteSpace=wrap;rounded=0;" vertex="1" parent="1">
          <mxGeometry x="504" y="260.75" width="60" height="30" as="geometry" />
        </mxCell>
        <mxCell id="ItCAHH0_QNCR098YTIzZ-6" value="&lt;font style=&quot;font-size: 20px;&quot;&gt;. . .&lt;/font&gt;" style="text;html=1;align=center;verticalAlign=middle;whiteSpace=wrap;rounded=0;" vertex="1" parent="1">
          <mxGeometry x="382" y="260.75" width="60" height="30" as="geometry" />
        </mxCell>
      </root>
    </mxGraphModel>
  </diagram>
</mxfile>
